<svg xmlns="http://www.w3.org/2000/svg" xmlns:xlink="http://www.w3.org/1999/xlink" width="500" zoomAndPan="magnify" viewBox="0 0 375 374.999991" height="500" preserveAspectRatio="xMidYMid meet" version="1.0"><defs><g/><clipPath id="37f1a7d129"><path d="M 175.324219 247.238281 L 200.417969 247.238281 L 200.417969 260.808594 L 175.324219 260.808594 Z M 175.324219 247.238281 " clip-rule="nonzero"/></clipPath><clipPath id="a5512d45c8"><path d="M 186 27.558594 L 190 27.558594 L 190 42 L 186 42 Z M 186 27.558594 " clip-rule="nonzero"/></clipPath><clipPath id="17bb5ac3e2"><path d="M 295.535156 155 L 316.015625 155 L 316.015625 158.507812 L 295.535156 158.507812 Z M 295.535156 155 " clip-rule="nonzero"/></clipPath><clipPath id="aecea1a5b8"><path d="M 58.765625 154 L 79 154 L 79 158 L 58.765625 158 Z M 58.765625 154 " clip-rule="nonzero"/></clipPath></defs><path fill="#8646f4" d="M 167.039062 98.25 C 157.671875 98.25 149.816406 105.5625 149.15625 114.902344 L 149.089844 115.878906 L 148.203125 116.308594 C 138.992188 120.792969 133.269531 129.933594 133.269531 140.167969 C 133.269531 145.625 134.921875 150.867188 138.042969 155.335938 L 138.449219 155.917969 L 138.320312 156.617188 C 138.273438 156.859375 138.234375 157.105469 138.203125 157.347656 L 138.140625 157.832031 L 137.832031 158.207031 C 133.226562 163.804688 130.6875 170.886719 130.6875 178.152344 C 130.6875 193.617188 142.210938 206.980469 157.488281 209.230469 L 158.160156 209.328125 L 158.578125 209.859375 C 162.710938 215.109375 169.203125 218.53125 176.851562 219.5 C 178.058594 219.652344 179.234375 219.292969 180.152344 218.480469 C 181.066406 217.675781 181.59375 216.511719 181.59375 215.292969 L 181.59375 98.480469 C 181.59375 95.734375 179.59375 94.5 177.882812 94.273438 C 176.191406 94.054688 173.96875 94.726562 173.269531 97.355469 L 172.824219 99.125 L 171.191406 98.738281 C 169.824219 98.414062 168.429688 98.25 167.039062 98.25 Z M 177.375 222.933594 C 177.058594 222.933594 176.742188 222.914062 176.425781 222.875 C 168.136719 221.824219 161.03125 218.148438 156.332031 212.488281 C 148.40625 211.164062 141.148438 207.105469 135.839844 201.003906 C 130.324219 194.671875 127.289062 186.558594 127.289062 178.152344 C 127.289062 170.332031 129.941406 162.695312 134.773438 156.578125 C 131.5625 151.695312 129.871094 146.039062 129.871094 140.167969 C 129.871094 134.449219 131.488281 128.886719 134.554688 124.089844 C 137.363281 119.691406 141.257812 116.109375 145.855469 113.6875 C 147.101562 103.046875 156.222656 94.847656 167.039062 94.847656 C 168.183594 94.847656 169.335938 94.941406 170.472656 95.128906 C 171.855469 92.15625 174.910156 90.457031 178.324219 90.902344 C 181.535156 91.320312 184.992188 93.871094 184.992188 98.480469 L 184.992188 215.292969 C 184.992188 217.488281 184.046875 219.582031 182.402344 221.035156 C 181.003906 222.265625 179.210938 222.933594 177.375 222.933594 " fill-opacity="1" fill-rule="nonzero"/><path fill="#8646f4" d="M 159.046875 212.554688 C 158.058594 212.554688 157.070312 212.488281 156.089844 212.351562 L 156.5625 208.980469 C 160.15625 209.484375 163.882812 208.882812 167.050781 207.289062 L 168.578125 210.332031 C 165.664062 211.792969 162.363281 212.554688 159.046875 212.554688 " fill-opacity="1" fill-rule="nonzero"/><path fill="#8646f4" d="M 169.304688 211.609375 C 170.820312 210.703125 171.3125 208.738281 170.40625 207.222656 C 169.5 205.710938 167.535156 205.214844 166.019531 206.121094 C 164.503906 207.03125 164.011719 208.992188 164.917969 210.507812 C 165.824219 212.023438 167.789062 212.515625 169.304688 211.609375 " fill-opacity="1" fill-rule="nonzero"/><path fill="#8646f4" d="M 151.039062 170.085938 C 144.265625 167.234375 138.644531 162.554688 134.785156 156.554688 L 137.648438 154.714844 C 141.132812 160.136719 146.21875 164.367188 152.359375 166.953125 L 151.039062 170.085938 " fill-opacity="1" fill-rule="nonzero"/><path fill="#8646f4" d="M 150.429688 171.445312 C 152.082031 172.066406 153.925781 171.230469 154.546875 169.578125 C 155.167969 167.925781 154.332031 166.082031 152.679688 165.460938 C 151.027344 164.839844 149.183594 165.675781 148.5625 167.328125 C 147.941406 168.980469 148.777344 170.824219 150.429688 171.445312 " fill-opacity="1" fill-rule="nonzero"/><path fill="#8646f4" d="M 142.902344 119.714844 L 140.867188 116.988281 C 146.585938 112.71875 153.488281 110.304688 160.832031 110.003906 L 160.972656 113.402344 C 154.316406 113.675781 148.066406 115.855469 142.902344 119.714844 " fill-opacity="1" fill-rule="nonzero"/><path fill="#8646f4" d="M 160.746094 114.914062 C 162.511719 114.910156 163.941406 113.476562 163.9375 111.710938 C 163.9375 109.945312 162.503906 108.515625 160.738281 108.519531 C 158.972656 108.523438 157.542969 109.957031 157.546875 111.722656 C 157.546875 113.488281 158.980469 114.917969 160.746094 114.914062 " fill-opacity="1" fill-rule="nonzero"/><path fill="#8646f4" d="M 165.871094 133.117188 L 163.890625 130.351562 C 168.675781 126.921875 172.148438 121.710938 173.421875 116.046875 C 174.914062 109.40625 173.410156 102.160156 169.402344 96.65625 L 172.152344 94.652344 C 176.726562 100.933594 178.441406 109.210938 176.738281 116.792969 C 175.285156 123.257812 171.324219 129.207031 165.871094 133.117188 " fill-opacity="1" fill-rule="nonzero"/><path fill="#8646f4" d="M 163.289062 128.933594 C 161.800781 129.882812 161.359375 131.859375 162.308594 133.347656 C 163.253906 134.839844 165.230469 135.277344 166.71875 134.332031 C 168.210938 133.382812 168.648438 131.40625 167.703125 129.917969 C 166.753906 128.425781 164.777344 127.988281 163.289062 128.933594 " fill-opacity="1" fill-rule="nonzero"/><path fill="#8646f4" d="M 182.824219 187.914062 C 177.902344 186.496094 173.480469 182.503906 170.027344 176.359375 C 168.832031 174.234375 167.800781 172.011719 166.808594 169.863281 C 165.496094 167.03125 164.257812 164.359375 162.664062 161.851562 C 159.761719 157.289062 155.714844 153.460938 150.96875 150.785156 L 152.640625 147.820312 C 157.871094 150.773438 162.332031 154.992188 165.535156 160.027344 C 167.25 162.726562 168.59375 165.628906 169.894531 168.433594 C 170.859375 170.523438 171.863281 172.683594 172.992188 174.695312 C 175.085938 178.421875 178.65625 183.175781 183.765625 184.644531 L 182.824219 187.914062 " fill-opacity="1" fill-rule="nonzero"/><path fill="#8646f4" d="M 150.464844 152.238281 C 148.898438 151.425781 148.285156 149.496094 149.09375 147.929688 C 149.90625 146.363281 151.835938 145.746094 153.402344 146.558594 C 154.972656 147.367188 155.585938 149.296875 154.773438 150.867188 C 153.964844 152.433594 152.035156 153.046875 150.464844 152.238281 " fill-opacity="1" fill-rule="nonzero"/><path fill="#8646f4" d="M 198.5625 94.234375 C 198.355469 94.234375 198.152344 94.25 197.957031 94.273438 C 196.246094 94.5 194.25 95.734375 194.25 98.480469 L 194.25 215.292969 C 194.25 216.511719 194.773438 217.675781 195.6875 218.480469 C 196.609375 219.292969 197.777344 219.652344 198.988281 219.5 C 206.640625 218.53125 213.128906 215.109375 217.261719 209.859375 L 217.683594 209.328125 L 218.351562 209.230469 C 233.628906 206.980469 245.152344 193.617188 245.152344 178.152344 C 245.152344 170.886719 242.613281 163.804688 238.007812 158.207031 L 237.699219 157.832031 L 237.636719 157.347656 C 237.605469 157.101562 237.566406 156.859375 237.519531 156.617188 L 237.390625 155.917969 L 237.800781 155.335938 C 240.917969 150.867188 242.570312 145.625 242.570312 140.167969 C 242.570312 129.933594 236.847656 120.792969 227.636719 116.308594 L 226.753906 115.878906 L 226.683594 114.902344 C 226.023438 105.5625 218.167969 98.25 208.800781 98.25 C 207.414062 98.25 206.015625 98.414062 204.648438 98.738281 L 203.019531 99.125 L 202.570312 97.351562 C 201.953125 95.03125 200.140625 94.234375 198.5625 94.234375 Z M 198.464844 222.933594 C 196.628906 222.933594 194.835938 222.265625 193.441406 221.035156 C 191.792969 219.582031 190.847656 217.488281 190.847656 215.292969 L 190.847656 98.480469 C 190.847656 93.871094 194.304688 91.320312 197.519531 90.902344 C 200.929688 90.457031 203.984375 92.15625 205.367188 95.128906 C 206.507812 94.941406 207.65625 94.847656 208.800781 94.847656 C 219.617188 94.847656 228.738281 103.046875 229.984375 113.6875 C 234.582031 116.109375 238.476562 119.691406 241.285156 124.089844 C 244.351562 128.886719 245.96875 134.449219 245.96875 140.167969 C 245.96875 146.039062 244.277344 151.695312 241.066406 156.578125 C 245.898438 162.695312 248.554688 170.332031 248.554688 178.152344 C 248.554688 186.558594 245.515625 194.671875 240.003906 201.003906 C 234.691406 207.105469 227.433594 211.164062 219.507812 212.488281 C 214.808594 218.148438 207.703125 221.824219 199.417969 222.875 C 199.101562 222.914062 198.78125 222.933594 198.464844 222.933594 " fill-opacity="1" fill-rule="nonzero"/><path fill="#8646f4" d="M 216.792969 212.554688 C 213.476562 212.554688 210.175781 211.792969 207.261719 210.332031 L 208.789062 207.289062 C 211.957031 208.882812 215.683594 209.484375 219.28125 208.980469 L 219.75 212.351562 C 218.769531 212.488281 217.78125 212.554688 216.792969 212.554688 " fill-opacity="1" fill-rule="nonzero"/><path fill="#8646f4" d="M 209.820312 206.121094 C 208.304688 205.214844 206.34375 205.710938 205.433594 207.222656 C 204.527344 208.738281 205.023438 210.703125 206.535156 211.609375 C 208.050781 212.515625 210.015625 212.023438 210.921875 210.507812 C 211.828125 208.992188 211.335938 207.03125 209.820312 206.121094 " fill-opacity="1" fill-rule="nonzero"/><path fill="#8646f4" d="M 224.800781 170.085938 L 223.480469 166.953125 C 229.621094 164.367188 234.707031 160.136719 238.195312 154.714844 L 241.054688 156.554688 C 237.195312 162.554688 231.574219 167.234375 224.800781 170.085938 " fill-opacity="1" fill-rule="nonzero"/><path fill="#8646f4" d="M 223.160156 165.460938 C 221.507812 166.082031 220.671875 167.925781 221.292969 169.578125 C 221.914062 171.230469 223.757812 172.066406 225.410156 171.445312 C 227.0625 170.824219 227.898438 168.980469 227.277344 167.328125 C 226.65625 165.675781 224.8125 164.839844 223.160156 165.460938 " fill-opacity="1" fill-rule="nonzero"/><path fill="#8646f4" d="M 232.9375 119.714844 C 227.773438 115.855469 221.527344 113.675781 214.871094 113.402344 L 215.007812 110.003906 C 222.351562 110.304688 229.257812 112.71875 234.972656 116.988281 L 232.9375 119.714844 " fill-opacity="1" fill-rule="nonzero"/><path fill="#8646f4" d="M 215.105469 108.519531 C 213.339844 108.515625 211.902344 109.945312 211.902344 111.710938 C 211.898438 113.476562 213.328125 114.910156 215.09375 114.914062 C 216.859375 114.917969 218.292969 113.488281 218.296875 111.722656 C 218.296875 109.957031 216.867188 108.523438 215.105469 108.519531 " fill-opacity="1" fill-rule="nonzero"/><path fill="#8646f4" d="M 209.96875 133.117188 C 204.515625 129.207031 200.554688 123.257812 199.101562 116.792969 C 197.398438 109.210938 199.113281 100.933594 203.6875 94.652344 L 206.4375 96.65625 C 202.429688 102.160156 200.929688 109.40625 202.417969 116.046875 C 203.691406 121.710938 207.167969 126.921875 211.949219 130.351562 L 209.96875 133.117188 " fill-opacity="1" fill-rule="nonzero"/><path fill="#8646f4" d="M 209.121094 134.332031 C 210.609375 135.277344 212.585938 134.839844 213.535156 133.347656 C 214.480469 131.859375 214.042969 129.882812 212.550781 128.933594 C 211.0625 127.988281 209.085938 128.425781 208.136719 129.917969 C 207.191406 131.40625 207.628906 133.382812 209.121094 134.332031 " fill-opacity="1" fill-rule="nonzero"/><path fill="#8646f4" d="M 193.015625 187.914062 L 192.078125 184.644531 C 197.183594 183.175781 200.753906 178.421875 202.847656 174.695312 C 203.980469 172.683594 204.980469 170.523438 205.945312 168.433594 C 207.246094 165.628906 208.589844 162.726562 210.308594 160.027344 C 213.507812 154.992188 217.96875 150.773438 223.199219 147.820312 L 224.871094 150.785156 C 220.125 153.460938 216.082031 157.289062 213.175781 161.851562 C 211.582031 164.359375 210.34375 167.035156 209.03125 169.863281 C 208.039062 172.011719 207.007812 174.234375 205.816406 176.359375 C 202.363281 182.503906 197.9375 186.496094 193.015625 187.914062 " fill-opacity="1" fill-rule="nonzero"/><path fill="#8646f4" d="M 222.4375 146.558594 C 224.003906 145.746094 225.933594 146.363281 226.746094 147.929688 C 227.554688 149.496094 226.941406 151.425781 225.375 152.238281 C 223.804688 153.046875 221.875 152.433594 221.066406 150.867188 C 220.253906 149.296875 220.867188 147.367188 222.4375 146.558594 " fill-opacity="1" fill-rule="nonzero"/><path fill="#8646f4" d="M 203.480469 229.21875 L 172.359375 229.21875 C 171.421875 229.21875 170.660156 228.457031 170.660156 227.515625 C 170.660156 226.578125 171.421875 225.816406 172.359375 225.816406 L 203.480469 225.816406 C 204.421875 225.816406 205.183594 226.578125 205.183594 227.515625 C 205.183594 228.457031 204.421875 229.21875 203.480469 229.21875 " fill-opacity="1" fill-rule="nonzero"/><path fill="#8646f4" d="M 203.480469 235.921875 L 172.359375 235.921875 C 171.421875 235.921875 170.660156 235.160156 170.660156 234.21875 C 170.660156 233.28125 171.421875 232.519531 172.359375 232.519531 L 203.480469 232.519531 C 204.421875 232.519531 205.183594 233.28125 205.183594 234.21875 C 205.183594 235.160156 204.421875 235.921875 203.480469 235.921875 " fill-opacity="1" fill-rule="nonzero"/><path fill="#8646f4" d="M 203.480469 242.621094 L 172.359375 242.621094 C 171.421875 242.621094 170.660156 241.859375 170.660156 240.921875 C 170.660156 239.980469 171.421875 239.222656 172.359375 239.222656 L 203.480469 239.222656 C 204.421875 239.222656 205.183594 239.980469 205.183594 240.921875 C 205.183594 241.859375 204.421875 242.621094 203.480469 242.621094 " fill-opacity="1" fill-rule="nonzero"/><path fill="#8646f4" d="M 203.480469 249.324219 L 172.359375 249.324219 C 171.421875 249.324219 170.660156 248.5625 170.660156 247.625 C 170.660156 246.683594 171.421875 245.921875 172.359375 245.921875 L 203.480469 245.921875 C 204.421875 245.921875 205.183594 246.683594 205.183594 247.625 C 205.183594 248.5625 204.421875 249.324219 203.480469 249.324219 " fill-opacity="1" fill-rule="nonzero"/><g clip-path="url(#37f1a7d129)"><path fill="#8646f4" d="M 187.921875 261.070312 C 181.066406 261.070312 175.488281 255.492188 175.488281 248.636719 L 175.488281 248.417969 L 178.890625 248.472656 L 178.890625 248.636719 C 178.890625 253.617188 182.941406 257.667969 187.921875 257.667969 C 192.898438 257.667969 196.953125 253.617188 196.953125 248.636719 C 196.953125 248.351562 196.9375 248.0625 196.910156 247.78125 L 200.296875 247.464844 C 200.332031 247.851562 200.351562 248.246094 200.351562 248.636719 C 200.351562 255.492188 194.777344 261.070312 187.921875 261.070312 " fill-opacity="1" fill-rule="nonzero"/></g><path fill="#8646f4" d="M 187.921875 74.339844 C 186.980469 74.339844 186.21875 73.578125 186.21875 72.640625 L 186.21875 60.875 C 186.21875 59.933594 186.980469 59.171875 187.921875 59.171875 C 188.859375 59.171875 189.621094 59.933594 189.621094 60.875 L 189.621094 72.640625 C 189.621094 73.578125 188.859375 74.339844 187.921875 74.339844 " fill-opacity="1" fill-rule="nonzero"/><g clip-path="url(#a5512d45c8)"><path fill="#8646f4" d="M 187.921875 41.871094 C 186.980469 41.871094 186.21875 41.109375 186.21875 40.167969 L 186.21875 29.273438 C 186.21875 28.335938 186.980469 27.574219 187.921875 27.574219 C 188.859375 27.574219 189.621094 28.335938 189.621094 29.273438 L 189.621094 40.167969 C 189.621094 41.109375 188.859375 41.871094 187.921875 41.871094 " fill-opacity="1" fill-rule="nonzero"/></g><path fill="#8646f4" d="M 246.957031 99.148438 C 246.519531 99.148438 246.085938 98.980469 245.753906 98.648438 C 245.089844 97.984375 245.089844 96.90625 245.753906 96.242188 L 261.460938 80.535156 C 262.125 79.871094 263.203125 79.871094 263.863281 80.535156 C 264.53125 81.199219 264.53125 82.277344 263.863281 82.941406 L 248.15625 98.648438 C 247.824219 98.980469 247.390625 99.148438 246.957031 99.148438 " fill-opacity="1" fill-rule="nonzero"/><path fill="#8646f4" d="M 267.964844 78.136719 C 267.53125 78.136719 267.097656 77.96875 266.765625 77.636719 C 266.101562 76.972656 266.101562 75.894531 266.765625 75.230469 L 276.414062 65.582031 C 277.078125 64.917969 278.15625 64.917969 278.820312 65.582031 C 279.484375 66.246094 279.484375 67.324219 278.820312 67.988281 L 269.167969 77.636719 C 268.835938 77.96875 268.402344 78.136719 267.964844 78.136719 " fill-opacity="1" fill-rule="nonzero"/><path fill="#8646f4" d="M 285.726562 158.433594 L 271.15625 158.433594 C 270.21875 158.433594 269.457031 157.671875 269.457031 156.730469 C 269.457031 155.792969 270.21875 155.03125 271.15625 155.03125 L 285.726562 155.03125 C 286.664062 155.03125 287.425781 155.792969 287.425781 156.730469 C 287.425781 157.671875 286.664062 158.433594 285.726562 158.433594 " fill-opacity="1" fill-rule="nonzero"/><g clip-path="url(#17bb5ac3e2)"><path fill="#8646f4" d="M 314.519531 158.433594 L 297.339844 158.433594 C 296.398438 158.433594 295.636719 157.671875 295.636719 156.730469 C 295.636719 155.792969 296.398438 155.03125 297.339844 155.03125 L 314.519531 155.03125 C 315.457031 155.03125 316.21875 155.792969 316.21875 156.730469 C 316.21875 157.671875 315.457031 158.433594 314.519531 158.433594 " fill-opacity="1" fill-rule="nonzero"/></g><path fill="#8646f4" d="M 254.230469 225.347656 C 253.796875 225.347656 253.359375 225.179688 253.027344 224.851562 L 245.148438 216.96875 C 244.484375 216.304688 244.484375 215.226562 245.148438 214.5625 C 245.8125 213.898438 246.886719 213.898438 247.550781 214.5625 L 255.433594 222.445312 C 256.097656 223.109375 256.097656 224.183594 255.433594 224.851562 C 255.101562 225.179688 254.667969 225.347656 254.230469 225.347656 " fill-opacity="1" fill-rule="nonzero"/><path fill="#8646f4" d="M 275.808594 247.628906 L 259.84375 231.667969 C 259.179688 231.003906 259.179688 229.925781 259.84375 229.261719 C 260.507812 228.597656 261.585938 228.597656 262.25 229.261719 L 278.214844 245.226562 L 275.808594 247.628906 " fill-opacity="1" fill-rule="nonzero"/><path fill="#8646f4" d="M 124.214844 220.679688 C 123.777344 220.679688 123.34375 220.511719 123.011719 220.179688 C 122.347656 219.515625 122.347656 218.4375 123.011719 217.773438 L 126.828125 213.957031 C 127.492188 213.292969 128.570312 213.292969 129.230469 213.957031 C 129.898438 214.625 129.898438 215.699219 129.230469 216.363281 L 125.414062 220.179688 C 125.082031 220.511719 124.648438 220.679688 124.214844 220.679688 " fill-opacity="1" fill-rule="nonzero"/><path fill="#8646f4" d="M 97.367188 247.523438 C 96.933594 247.523438 96.496094 247.359375 96.164062 247.027344 C 95.5 246.363281 95.5 245.285156 96.164062 244.621094 L 110.136719 230.652344 C 110.800781 229.988281 111.875 229.988281 112.539062 230.652344 C 113.203125 231.316406 113.203125 232.390625 112.539062 233.054688 L 98.570312 247.027344 C 98.238281 247.359375 97.804688 247.523438 97.367188 247.523438 " fill-opacity="1" fill-rule="nonzero"/><path fill="#8646f4" d="M 103.828125 157.578125 L 88.300781 157.578125 C 87.359375 157.578125 86.597656 156.816406 86.597656 155.875 C 86.597656 154.9375 87.359375 154.175781 88.300781 154.175781 L 103.828125 154.175781 C 104.765625 154.175781 105.527344 154.9375 105.527344 155.875 C 105.527344 156.816406 104.765625 157.578125 103.828125 157.578125 " fill-opacity="1" fill-rule="nonzero"/><g clip-path="url(#aecea1a5b8)"><path fill="#8646f4" d="M 77.191406 157.578125 L 60.464844 157.578125 C 59.527344 157.578125 58.765625 156.816406 58.765625 155.875 C 58.765625 154.9375 59.527344 154.175781 60.464844 154.175781 L 77.191406 154.175781 C 78.128906 154.175781 78.890625 154.9375 78.890625 155.875 C 78.890625 156.816406 78.128906 157.578125 77.191406 157.578125 " fill-opacity="1" fill-rule="nonzero"/></g><path fill="#8646f4" d="M 128.636719 98.542969 C 128.199219 98.542969 127.765625 98.375 127.433594 98.042969 L 118.820312 89.429688 C 118.15625 88.765625 118.15625 87.691406 118.820312 87.027344 C 119.484375 86.359375 120.558594 86.359375 121.222656 87.027344 L 129.839844 95.636719 C 130.5 96.300781 130.5 97.378906 129.839844 98.042969 C 129.503906 98.375 129.070312 98.542969 128.636719 98.542969 " fill-opacity="1" fill-rule="nonzero"/><path fill="#8646f4" d="M 110.679688 80.585938 C 110.246094 80.585938 109.808594 80.421875 109.476562 80.089844 L 96.769531 67.382812 C 96.105469 66.71875 96.105469 65.640625 96.769531 64.976562 C 97.433594 64.3125 98.511719 64.3125 99.175781 64.976562 L 111.882812 77.683594 C 112.546875 78.347656 112.546875 79.425781 111.882812 80.089844 C 111.550781 80.421875 111.117188 80.585938 110.679688 80.585938 " fill-opacity="1" fill-rule="nonzero"/><path fill="#8646f4" d="M 160.386719 83.816406 C 159.820312 83.816406 159.269531 83.535156 158.945312 83.023438 L 154.003906 75.175781 C 153.503906 74.378906 153.746094 73.332031 154.539062 72.832031 C 155.335938 72.332031 156.382812 72.570312 156.882812 73.363281 L 161.824219 81.210938 C 162.324219 82.003906 162.085938 83.054688 161.289062 83.554688 C 161.007812 83.730469 160.695312 83.816406 160.386719 83.816406 " fill-opacity="1" fill-rule="nonzero"/><path fill="#8646f4" d="M 149.789062 66.980469 C 149.222656 66.980469 148.671875 66.699219 148.347656 66.1875 L 141.417969 55.179688 C 140.917969 54.382812 141.15625 53.335938 141.949219 52.835938 C 142.746094 52.332031 143.796875 52.574219 144.296875 53.367188 L 151.226562 64.375 C 151.726562 65.167969 151.488281 66.21875 150.691406 66.71875 C 150.410156 66.898438 150.097656 66.980469 149.789062 66.980469 " fill-opacity="1" fill-rule="nonzero"/><path fill="#8646f4" d="M 216.230469 83.816406 C 215.921875 83.816406 215.609375 83.730469 215.328125 83.554688 C 214.53125 83.054688 214.292969 82.003906 214.792969 81.210938 L 220.402344 72.296875 C 220.90625 71.5 221.953125 71.261719 222.75 71.761719 C 223.542969 72.261719 223.78125 73.3125 223.28125 74.105469 L 217.671875 83.019531 C 217.347656 83.535156 216.796875 83.816406 216.230469 83.816406 " fill-opacity="1" fill-rule="nonzero"/><path fill="#8646f4" d="M 228.269531 64.695312 C 227.957031 64.695312 227.644531 64.609375 227.363281 64.433594 C 226.570312 63.933594 226.328125 62.882812 226.832031 62.085938 L 232.320312 53.367188 C 232.820312 52.574219 233.871094 52.332031 234.664062 52.835938 C 235.460938 53.335938 235.699219 54.382812 235.199219 55.179688 L 229.707031 63.898438 C 229.386719 64.414062 228.832031 64.695312 228.269531 64.695312 " fill-opacity="1" fill-rule="nonzero"/><path fill="#8646f4" d="M 112.597656 127.296875 L 97.847656 120.550781 C 96.996094 120.160156 96.621094 119.152344 97.011719 118.296875 C 97.402344 117.445312 98.410156 117.066406 99.265625 117.457031 L 114.011719 124.203125 L 112.597656 127.296875 " fill-opacity="1" fill-rule="nonzero"/><path fill="#8646f4" d="M 88.445312 116.082031 C 88.207031 116.082031 87.96875 116.03125 87.738281 115.925781 L 74.550781 109.894531 C 73.699219 109.503906 73.320312 108.496094 73.714844 107.640625 C 74.101562 106.789062 75.113281 106.410156 75.964844 106.804688 L 89.152344 112.832031 C 90.007812 113.226562 90.382812 114.234375 89.992188 115.089844 C 89.707031 115.710938 89.089844 116.082031 88.445312 116.082031 " fill-opacity="1" fill-rule="nonzero"/><path fill="#8646f4" d="M 262.390625 127.296875 L 260.972656 124.203125 L 276.179688 117.246094 C 277.035156 116.855469 278.042969 117.234375 278.433594 118.085938 C 278.824219 118.941406 278.449219 119.949219 277.59375 120.339844 L 262.390625 127.296875 " fill-opacity="1" fill-rule="nonzero"/><path fill="#8646f4" d="M 293.773438 112.773438 C 293.128906 112.773438 292.511719 112.402344 292.226562 111.777344 C 291.835938 110.925781 292.210938 109.914062 293.066406 109.523438 L 299.019531 106.804688 C 299.871094 106.410156 300.878906 106.789062 301.273438 107.640625 C 301.664062 108.496094 301.285156 109.503906 300.433594 109.894531 L 294.480469 112.617188 C 294.253906 112.722656 294.011719 112.773438 293.773438 112.773438 " fill-opacity="1" fill-rule="nonzero"/><path fill="#8646f4" d="M 102.601562 192.019531 C 101.992188 192.019531 101.402344 191.691406 101.097656 191.113281 C 100.65625 190.285156 100.972656 189.253906 101.800781 188.816406 L 111.902344 183.453125 C 112.730469 183.011719 113.761719 183.328125 114.199219 184.15625 C 114.640625 184.984375 114.324219 186.015625 113.496094 186.457031 L 103.394531 191.816406 C 103.140625 191.953125 102.871094 192.019531 102.601562 192.019531 " fill-opacity="1" fill-rule="nonzero"/><path fill="#8646f4" d="M 79.117188 204.710938 L 77.523438 201.707031 L 92.496094 193.753906 C 93.328125 193.3125 94.355469 193.628906 94.796875 194.460938 C 95.238281 195.289062 94.921875 196.316406 94.09375 196.757812 L 79.117188 204.710938 " fill-opacity="1" fill-rule="nonzero"/><path fill="#8646f4" d="M 270.433594 190.328125 C 270.164062 190.328125 269.890625 190.265625 269.636719 190.128906 L 262.714844 186.457031 C 261.886719 186.015625 261.570312 184.984375 262.011719 184.15625 C 262.453125 183.328125 263.480469 183.011719 264.3125 183.453125 L 271.230469 187.125 C 272.0625 187.566406 272.375 188.59375 271.933594 189.425781 C 271.628906 190 271.042969 190.328125 270.433594 190.328125 " fill-opacity="1" fill-rule="nonzero"/><path fill="#8646f4" d="M 297.890625 204.910156 C 297.621094 204.910156 297.347656 204.84375 297.097656 204.710938 L 280.390625 195.839844 C 279.5625 195.398438 279.246094 194.371094 279.683594 193.539062 C 280.125 192.710938 281.15625 192.394531 281.984375 192.835938 L 298.691406 201.707031 C 299.519531 202.144531 299.835938 203.175781 299.394531 204.003906 C 299.089844 204.582031 298.5 204.910156 297.890625 204.910156 " fill-opacity="1" fill-rule="nonzero"/><g fill="#8646f4" fill-opacity="1"><g transform="translate(95.402818, 327.059451)"><g><path d="M 21.074219 0 L 21.074219 -2.859375 L 6.378906 -2.859375 L 6.378906 -13.507812 L 20.632812 -13.507812 L 20.632812 -16.410156 L 6.378906 -16.410156 L 6.378906 -27.058594 L 21.074219 -27.058594 L 21.074219 -29.917969 L 3.300781 -29.917969 L 3.300781 0 Z M 21.074219 0 "/></g></g></g><g fill="#8646f4" fill-opacity="1"><g transform="translate(119.774474, 327.059451)"><g><path d="M 21.953125 0 L 25.738281 0 L 15.222656 -14.957031 L 25.738281 -29.917969 L 21.953125 -29.917969 L 13.332031 -17.15625 L 4.707031 -29.917969 L 0.878906 -29.917969 L 11.4375 -14.914062 L 0.925781 0 L 4.707031 0 L 13.332031 -12.757812 Z M 21.953125 0 "/></g></g></g><g fill="#8646f4" fill-opacity="1"><g transform="translate(146.433725, 327.059451)"><g><path d="M 6.378906 -14.828125 L 6.378906 -26.96875 L 13.332031 -26.96875 C 15.132812 -26.96875 16.585938 -26.398438 17.6875 -25.296875 C 18.742188 -24.152344 19.3125 -22.746094 19.3125 -20.984375 C 19.3125 -19.183594 18.742188 -17.730469 17.597656 -16.542969 C 16.453125 -15.398438 15.046875 -14.828125 13.332031 -14.828125 Z M 22.394531 -20.898438 C 22.394531 -23.539062 21.425781 -25.691406 19.578125 -27.410156 C 17.730469 -29.082031 15.53125 -29.917969 12.890625 -29.917969 L 3.300781 -29.917969 L 3.300781 0 L 6.378906 0 L 6.378906 -11.835938 L 12.890625 -11.835938 C 15.53125 -11.835938 17.773438 -12.671875 19.578125 -14.34375 C 21.425781 -16.101562 22.394531 -18.257812 22.394531 -20.898438 Z M 22.394531 -20.898438 "/></g></g></g><g fill="#8646f4" fill-opacity="1"><g transform="translate(169.705582, 327.059451)"><g><path d="M 21.074219 0 L 21.074219 -2.859375 L 6.378906 -2.859375 L 6.378906 -13.507812 L 20.632812 -13.507812 L 20.632812 -16.410156 L 6.378906 -16.410156 L 6.378906 -27.058594 L 21.074219 -27.058594 L 21.074219 -29.917969 L 3.300781 -29.917969 L 3.300781 0 Z M 21.074219 0 "/></g></g></g><g fill="#8646f4" fill-opacity="1"><g transform="translate(194.077238, 327.059451)"><g><path d="M 6.378906 -14.78125 L 6.378906 -26.96875 L 13.332031 -26.96875 C 15.132812 -26.96875 16.585938 -26.398438 17.6875 -25.253906 C 18.742188 -24.109375 19.3125 -22.703125 19.3125 -20.941406 C 19.3125 -19.183594 18.742188 -17.730469 17.597656 -16.542969 C 16.453125 -15.355469 15.046875 -14.78125 13.332031 -14.78125 Z M 22.394531 -20.898438 C 22.394531 -23.449219 21.425781 -25.648438 19.578125 -27.363281 C 17.773438 -29.035156 15.53125 -29.917969 12.890625 -29.917969 L 3.300781 -29.917969 L 3.300781 0 L 6.378906 0 L 6.378906 -11.835938 L 9.941406 -11.835938 L 18.742188 0 L 22.878906 0 L 13.636719 -11.835938 C 15.96875 -11.964844 17.949219 -12.800781 19.578125 -14.34375 C 21.425781 -16.058594 22.394531 -18.257812 22.394531 -20.898438 Z M 22.394531 -20.898438 "/></g></g></g><g fill="#8646f4" fill-opacity="1"><g transform="translate(218.008972, 327.059451)"><g><path d="M 0.878906 -27.144531 L 8.140625 -27.144531 L 8.140625 -0.0898438 L 11.21875 -0.0898438 L 11.21875 -27.144531 L 18.476562 -27.144531 L 18.476562 -30.003906 L 0.878906 -30.003906 Z M 0.878906 -27.144531 "/></g></g></g><g fill="#8646f4" fill-opacity="1"><g transform="translate(237.375469, 327.059451)"><g><path d="M 18.917969 -11.4375 L 11.351562 -11.4375 L 15.132812 -22.085938 Z M 30.09375 0 L 17.949219 -29.917969 L 12.363281 -29.917969 L 0.21875 0 L 7.304688 0 L 9.457031 -6.027344 L 20.855469 -6.027344 L 23.007812 0 Z M 30.09375 0 "/></g></g></g><g fill="#8646f4" fill-opacity="1"><g transform="translate(267.686071, 327.059451)"><g><path d="M 9.238281 0 L 9.238281 -29.917969 L 2.640625 -29.917969 L 2.640625 0 Z M 9.238281 0 "/></g></g></g></svg>